<?xml version="1.0" standalone="no"?>
<!DOCTYPE svg PUBLIC "-//W3C//DTD SVG 20010904//EN"
 "http://www.w3.org/TR/2001/REC-SVG-20010904/DTD/svg10.dtd">
<svg version="1.0" xmlns="http://www.w3.org/2000/svg"
 width="134.000000pt" height="134.000000pt" viewBox="0 0 134.000000 134.000000"
 preserveAspectRatio="xMidYMid meet">
<metadata>
Created by potrace 1.14, written by Peter Selinger 2001-2017
</metadata>
<g transform="translate(0.000000,134.000000) scale(0.100000,-0.100000)"
fill="#000000" stroke="none">
<path d="M336 1257 c-14 -11 -37 -88 -60 -212 -2 -11 -20 -96 -40 -190 -19
-93 -37 -181 -40 -195 -2 -14 -27 -131 -54 -260 -66 -310 -63 -289 -41 -311
35 -35 84 -20 93 27 2 11 11 53 20 94 8 41 18 91 21 110 3 19 8 42 10 50 2 8
7 29 9 45 11 59 18 85 24 86 31 6 195 3 205 -3 6 -4 9 -8 6 -8 -4 0 -2 -19 3
-42 10 -43 24 -117 33 -173 2 -16 9 -52 15 -80 5 -27 12 -63 14 -79 6 -35 6
-34 43 -42 36 -7 63 15 63 52 0 14 -11 75 -25 137 -13 62 -26 123 -29 137 -2
14 -12 61 -21 105 -9 44 -19 88 -21 98 -2 10 -5 26 -8 35 -3 9 -7 29 -10 43
-2 14 -23 116 -46 225 -23 109 -44 210 -47 224 -3 14 -6 30 -7 35 -2 6 -6 27
-11 48 -10 53 -58 74 -99 44z m69 -358 c13 -74 27 -145 31 -159 3 -14 8 -41
10 -60 3 -19 7 -41 9 -47 3 -9 -17 -12 -78 -10 -87 2 -92 6 -76 52 3 11 9 38
13 60 7 53 27 147 51 255 2 8 4 24 4 34 2 39 11 6 36 -125z"/>
<path d="M782 1250 c-19 -18 -22 -31 -22 -108 -1 -583 1 -1008 6 -1026 10 -41
40 -48 190 -44 179 5 218 24 268 128 20 44 21 57 21 470 0 412 -1 426 -21 471
-26 55 -55 85 -109 110 -33 15 -65 19 -176 19 -122 0 -137 -2 -157 -20z m275
-100 c31 -11 60 -52 70 -98 4 -15 6 -187 7 -382 0 -388 -3 -410 -55 -455 -27
-22 -39 -25 -113 -25 l-83 0 0 478 c0 262 2 480 4 485 6 11 136 9 170 -3z"/>
</g>
</svg>
